<svg xmlns="http://www.w3.org/2000/svg" viewBox="0 0 1200 140" width="1200" height="140" role="img" aria-label="ocean footer">
  <defs>
    <linearGradient id="footerOcean" x1="0%" y1="0%" x2="0%" y2="100%">
      <stop offset="0%" stop-color="#0066a0"/>
      <stop offset="50%" stop-color="#003a5c"/>
      <stop offset="100%" stop-color="#001a2e"/>
    </linearGradient>

    <linearGradient id="footerWaveLight" x1="0%" y1="0%" x2="100%" y2="0%">
      <stop offset="0%" stop-color="#10c0f0" stop-opacity="0"/>
      <stop offset="50%" stop-color="#10c0f0" stop-opacity="0.55"/>
      <stop offset="100%" stop-color="#10c0f0" stop-opacity="0"/>
    </linearGradient>
    <linearGradient id="footerWaveDeep" x1="0%" y1="0%" x2="100%" y2="0%">
      <stop offset="0%" stop-color="#0090d0" stop-opacity="0"/>
      <stop offset="50%" stop-color="#0090d0" stop-opacity="0.4"/>
      <stop offset="100%" stop-color="#0090d0" stop-opacity="0"/>
    </linearGradient>

    <filter id="footerGrain">
      <feTurbulence type="fractalNoise" baseFrequency="0.9" numOctaves="2" seed="7"/>
      <feColorMatrix values="0 0 0 0 1   0 0 0 0 1   0 0 0 0 1   0 0 0 0.05 0"/>
      <feComposite in2="SourceGraphic" operator="in"/>
    </filter>

    <style>
      .fmono { font-family: 'JetBrains Mono', 'Fira Code', ui-monospace, monospace; }
      .fdrift1 { animation: fdrift 9s ease-in-out infinite; }
      .fdrift2 { animation: fdrift 13s ease-in-out infinite reverse; }
      @keyframes fdrift { 0%,100% { transform: translateX(0); } 50% { transform: translateX(8px); } }
    </style>
  </defs>

  <rect width="1200" height="140" fill="url(#footerOcean)"/>

  <!-- Mirrored layered waves (cresting upward this time) -->
  <g class="fdrift2" opacity="0.5">
    <path d="M0,0 L0,40 Q150,70 300,40 T600,40 T900,40 T1200,40 L1200,0 Z" fill="#0090d0"/>
  </g>
  <g class="fdrift1" opacity="0.65">
    <path d="M0,0 L0,65 Q200,95 400,60 T800,60 T1200,70 L1200,0 Z" fill="#0066a0"/>
  </g>
  <g opacity="0.85">
    <path d="M0,0 L0,95 Q180,115 360,90 T720,90 T1200,100 L1200,0 Z" fill="#003a5c"/>
  </g>

  <!-- Wave crest highlights -->
  <path d="M-20,40 Q150,70 300,40 T600,40 T900,40 T1220,40"
        fill="none" stroke="url(#footerWaveLight)" stroke-width="1.5" opacity="0.7"/>
  <path d="M-20,65 Q200,95 400,60 T800,60 T1220,70"
        fill="none" stroke="url(#footerWaveDeep)" stroke-width="1.5" opacity="0.6"/>

  <!-- Footer signature -->
  <text x="600" y="120" class="fmono" font-size="11" fill="#4a7a95" text-anchor="middle" letter-spacing="3">
    BUILT WITH CAFFEINE IN LAUSANNE <tspan fill="#e04010">·</tspan> KEEP SHIPPING
  </text>

  <!-- Tiny orange dots, mirror of banner -->
  <circle cx="40" cy="120" r="3" fill="#e04010"/>
  <circle cx="55" cy="120" r="3" fill="#e04010" opacity="0.5"/>
  <circle cx="70" cy="120" r="3" fill="#e04010" opacity="0.25"/>

  <!-- Grain overlay -->
  <rect width="1200" height="140" filter="url(#footerGrain)"/>
</svg>
